<svg version="1.1" id="Layer_1" xmlns="http://www.w3.org/2000/svg" xmlns:xlink="http://www.w3.org/1999/xlink" x="0px" y="0px"
	 width="100%" viewBox="0 0 137 130" enable-background="new 0 0 137 130" xml:space="preserve">
<path fill="none" opacity="1.000000" stroke="#000000" stroke-linecap="round" stroke-linejoin="round" stroke-width="4.000000"
	d="
M26.000000,55.000000 
	C24.860613,68.821617 25.358145,82.678986 25.676258,96.495941 
	C25.858944,104.430649 33.461803,110.455872 41.500057,110.482117 
	C59.166538,110.539795 76.833702,110.567177 94.499847,110.471504 
	C103.262550,110.424057 111.304718,105.371819 111.009933,93.999741 
	C110.668709,80.835854 111.565926,67.658295 110.546722,54.496384 
	C110.380936,52.355457 110.987541,50.165665 110.973473,48.000172 
	C110.910545,38.320786 105.055023,32.500000 95.500000,32.500000 
	C77.500000,32.500004 59.500000,32.499996 41.500000,32.500000 
	C31.519840,32.500000 25.488255,38.506432 25.521278,48.499931 
	C25.527893,50.501476 25.099066,52.561188 26.000000,54.500000 
"/>
<path fill="none" opacity="1.000000" stroke="#000000" stroke-linecap="round" stroke-linejoin="round" stroke-width="4.000000"
	d="
M110.000000,54.500000 
	C82.166664,54.500000 54.333332,54.500000 26.500000,54.500000 
"/>
<path fill="none" opacity="1.000000" stroke="#000000" stroke-linecap="round" stroke-linejoin="round" stroke-width="3.000000"
	d="
M47.500000,23.500000 
	C48.471588,26.116360 47.801014,28.835354 48.000000,31.500000 
"/>
<path fill="none" opacity="1.000000" stroke="#000000" stroke-linecap="round" stroke-linejoin="round" stroke-width="4.000000"
	d="
M88.500000,23.500000 
	C88.500000,26.166666 88.500000,28.833334 88.500000,31.500000 
"/>
<path fill="none" opacity="1.000000" stroke="#000000" stroke-linecap="round" stroke-linejoin="round" stroke-width="4.000000"
	d="
M43.500000,69.500000 
	C42.005409,70.462387 40.407177,71.278847 40.478107,73.500702 
	C40.568470,76.331146 40.090103,79.247971 40.630848,81.974045 
	C41.056625,84.120506 48.521294,85.619728 51.989521,84.468430 
	C54.780766,83.541878 55.826103,81.406319 55.523304,78.497574 
	C55.385994,77.178535 55.450172,75.831108 55.509659,74.500435 
	C55.667042,70.979958 54.020702,69.354362 50.499447,69.485130 
	C48.335766,69.565483 46.166668,69.500000 44.000000,69.500000 
"/>
</svg>